<svg xmlns="http://www.w3.org/2000/svg" viewBox="0 0 29.25 29.25"><title>Recurso 10x1</title><g id="Capa_2" data-name="Capa 2"><g id="Capa_1-2" data-name="Capa 1"><rect width="29.25" height="29.25" rx="5.46" fill="none"/><path d="M18.8,14.383a4.17,4.17,0,1,1-4.17-4.17A4.174,4.174,0,0,0,18.8,14.383Z" fill="#ccc"/><path d="M25.746,14.093a12.761,12.761,0,0,0-2.85-4.55,10.9,10.9,0,0,0-5.75-3.15,13.122,13.122,0,0,0-2.51-.24c-8.63,0-11.09,7.87-11.12,7.94l-.08.29.08.29c.03.08,2.49,7.93,11.12,7.93,8.61,0,11.08-7.85,11.11-7.93l.09-.29ZM14.636,20.6a9.51,9.51,0,0,1-9.1-6.22,9.515,9.515,0,0,1,9.1-6.23c.18,0,.36,0,.53.01a9.2,9.2,0,0,1,7.33,3.95,10.206,10.206,0,0,1,1.23,2.27A9.53,9.53,0,0,1,14.636,20.6Z" fill="#ccc"/></g></g></svg>